<svg id="Layer_1" data-name="Layer 1" xmlns="http://www.w3.org/2000/svg" viewBox="0 0 60.88 60.88"><defs><style>.cls-1{fill:#2b2b2b;}.cls-2{fill:#ebf6f9;}.cls-3{fill:#bee2e4;}.cls-4{fill:#2cb6b9;}.cls-5{fill:#87cccf;}</style></defs><title>Quote6</title><path class="cls-1" d="M32,9.88h0A2.6,2.6,0,0,0,34.25,6h0L32,2.07,29.75,6h0A2.6,2.6,0,0,0,32,9.88Z" transform="translate(-1.56 -2.07)"/><path class="cls-1" d="M43.32,12.91h0a2.6,2.6,0,0,0,3.9-2.26h0V6.15L43.32,8.4h0a2.6,2.6,0,0,0,0,4.51Z" transform="translate(-1.56 -2.07)"/><path class="cls-1" d="M51.6,21.19h0a2.6,2.6,0,0,0,4.51,0h0l2.25-3.9H53.85a2.6,2.6,0,0,0-2.25,3.9Z" transform="translate(-1.56 -2.07)"/><path class="cls-1" d="M54.63,32.51h0a2.61,2.61,0,0,0,3.91,2.25h0l3.9-2.25-3.9-2.26h0a2.61,2.61,0,0,0-3.91,2.26Z" transform="translate(-1.56 -2.07)"/><path class="cls-1" d="M51.6,43.83h0a2.6,2.6,0,0,0,2.25,3.9h4.51l-2.25-3.9h0a2.6,2.6,0,0,0-4.51,0Z" transform="translate(-1.56 -2.07)"/><path class="cls-1" d="M43.32,52.11h0a2.6,2.6,0,0,0,0,4.51h0l3.9,2.25V54.36h0a2.6,2.6,0,0,0-3.9-2.25Z" transform="translate(-1.56 -2.07)"/><path class="cls-1" d="M32,55.14h0a2.6,2.6,0,0,0-2.25,3.91h0L32,63l2.25-3.9h0A2.6,2.6,0,0,0,32,55.14Z" transform="translate(-1.56 -2.07)"/><path class="cls-1" d="M20.68,52.11h0a2.6,2.6,0,0,0-3.9,2.25h0v4.51l3.9-2.25h0a2.6,2.6,0,0,0,0-4.51Z" transform="translate(-1.56 -2.07)"/><path class="cls-1" d="M12.4,43.83h0a2.6,2.6,0,0,0-4.51,0h0l-2.25,3.9h4.51a2.6,2.6,0,0,0,2.25-3.9Z" transform="translate(-1.56 -2.07)"/><path class="cls-1" d="M9.37,32.51h0a2.61,2.61,0,0,0-3.91-2.26h0l-3.9,2.26,3.9,2.25h0a2.61,2.61,0,0,0,3.91-2.25Z" transform="translate(-1.56 -2.07)"/><path class="cls-1" d="M12.4,21.19h0a2.6,2.6,0,0,0-2.25-3.9H5.64l2.25,3.9h0a2.6,2.6,0,0,0,4.51,0Z" transform="translate(-1.56 -2.07)"/><path class="cls-1" d="M20.68,12.91h0a2.6,2.6,0,0,0,0-4.51h0l-3.9-2.25v4.5h0a2.6,2.6,0,0,0,3.9,2.26Z" transform="translate(-1.56 -2.07)"/><path class="cls-1" d="M32,9.88h0A2.6,2.6,0,0,0,34.25,6h0L32,2.07,29.75,6h0A2.6,2.6,0,0,0,32,9.88Z" transform="translate(-1.56 -2.07)"/><path class="cls-2" d="M32,12.94a25.22,25.22,0,0,0-5.54,6.2,24.88,24.88,0,0,1,5.54,2,24.88,24.88,0,0,1,5.54-2A25.22,25.22,0,0,0,32,12.94Zm0,31a24.88,24.88,0,0,1-5.54,2A25.22,25.22,0,0,0,32,52.08a25.22,25.22,0,0,0,5.54-6.2A24.88,24.88,0,0,1,32,43.92Z" transform="translate(-1.56 -2.07)"/><path class="cls-3" d="M18.63,27a25.22,25.22,0,0,0-6.2,5.54,25.22,25.22,0,0,0,6.2,5.54,24.88,24.88,0,0,1,2-5.54A24.88,24.88,0,0,1,18.63,27Zm26.74,0a24.88,24.88,0,0,1-2,5.54,24.88,24.88,0,0,1,2,5.54,25.22,25.22,0,0,0,6.2-5.54A25.22,25.22,0,0,0,45.37,27Z" transform="translate(-1.56 -2.07)"/><path class="cls-4" d="M38.46,25.68l-.14-.13a9.39,9.39,0,0,0-6-2.44h-.54a9.35,9.35,0,0,0-6.19,2.57l0,0a1.21,1.21,0,0,1-.16.16l-.18.19a4.81,4.81,0,0,0-.42.48,7.51,7.51,0,0,0-.54.72l-.25.38-.23.4h0a1.09,1.09,0,0,1-.08.15c-.07.15-.15.3-.22.46a3.05,3.05,0,0,0-.13.32,3.05,3.05,0,0,0-.13.32h0c-.05.12-.09.25-.13.38a.93.93,0,0,0,0,.13l-.06.21,0,.13-.06.24-.06.32v0l-.06.35a0,0,0,0,1,0,0,1.1,1.1,0,0,1,0,.18s0,.11,0,.17a.49.49,0,0,0,0,.12.41.41,0,0,0,0,.11c0,.05,0,.11,0,.16V32a1.48,1.48,0,0,0,0,.21.09.09,0,0,0,0,.05h0v.54a.09.09,0,0,0,0,0V33c0,.18,0,.36.05.53a1.1,1.1,0,0,0,0,.18c0,.23.07.46.11.69a.85.85,0,0,1,0,.17l.06.25c0,.09.05.17.07.25a1.42,1.42,0,0,0,.07.22,1.87,1.87,0,0,0,.07.22,3.52,3.52,0,0,0,.15.42l.18.43h0l.09.19q.14.28.3.57c0,.08.09.16.14.24h0c.08.13.16.26.25.38h0c.12.19.26.37.4.55l.14.18q.2.24.42.48a25.6,25.6,0,0,1-4.58-6.46,24.88,24.88,0,0,1-2-5.54,25.18,25.18,0,0,1-.47-8.3,25.18,25.18,0,0,1,8.3.47,24.88,24.88,0,0,1,5.54,2,25.37,25.37,0,0,1,3.78,2.29A25,25,0,0,1,38.46,25.68Z" transform="translate(-1.56 -2.07)"/><path class="cls-4" d="M45.84,46.34a25.17,25.17,0,0,1-8.3-.46,24.88,24.88,0,0,1-5.54-2,24.62,24.62,0,0,1-3.78-2.3,24.88,24.88,0,0,1-2.68-2.28,9.38,9.38,0,0,0,6.19,2.56h.54a9.33,9.33,0,0,0,6-2.43l.11-.11,0,0h0l0,0,0,0,0,0,0,0,.07-.06.18-.19h0c.1-.1.19-.21.28-.31h0c.1-.11.19-.23.28-.35a9.31,9.31,0,0,0,2-5.53h0V32.7h0v-.19h0v-.19h0v-.07h0a9.59,9.59,0,0,0-.65-3.18c-.09-.21-.18-.42-.28-.63s-.2-.4-.32-.6-.15-.26-.23-.39l-.25-.37a3.44,3.44,0,0,0-.28-.36,7,7,0,0,0-.56-.66,23.79,23.79,0,0,1,2.28,2.68,24.15,24.15,0,0,1,2.3,3.78,24.88,24.88,0,0,1,2,5.54A25.13,25.13,0,0,1,45.84,46.34Z" transform="translate(-1.56 -2.07)"/><path class="cls-5" d="M45.37,27a24.88,24.88,0,0,1-2,5.54,24.15,24.15,0,0,0-2.3-3.78,23.79,23.79,0,0,0-2.28-2.68h0l0,0h0l0,0,0,0a.23.23,0,0,1-.07-.07.23.23,0,0,1-.07-.07l-.09-.09h0l0,0a25,25,0,0,0-2.68-2.29A25.37,25.37,0,0,0,32,21.1a24.88,24.88,0,0,1,5.54-2,25.18,25.18,0,0,1,8.3-.47A25.18,25.18,0,0,1,45.37,27Z" transform="translate(-1.56 -2.07)"/><path class="cls-5" d="M32,43.92a24.88,24.88,0,0,1-5.54,2,25.17,25.17,0,0,1-8.3.46,25.13,25.13,0,0,1,.47-8.29,24.88,24.88,0,0,1,2-5.54A25.6,25.6,0,0,0,25.17,39l.18.18.07.08.12.11h0a24.88,24.88,0,0,0,2.68,2.28A24.62,24.62,0,0,0,32,43.92Z" transform="translate(-1.56 -2.07)"/></svg>