<svg id="Layer_1" data-name="Layer 1" xmlns="http://www.w3.org/2000/svg" viewBox="0 0 1644.11 584.78"><defs><style>.cls-1,.cls-7{fill:#2b2b2b;}.cls-2{fill:#ebf6f9;}.cls-3{fill:#bee2e4;}.cls-4,.cls-6{fill:#2cb6b9;}.cls-5{fill:#87cccf;}.cls-6{font-size:275px;font-family:Ubuntu-Regular, Ubuntu;letter-spacing:0.05em;}.cls-7{letter-spacing:0.02em;}</style></defs><title>Quote7</title><path class="cls-1" d="M1384,103.52h0A25,25,0,0,0,1405.61,66h0L1384,28.52,1362.31,66h0a25,25,0,0,0,21.65,37.5Z" transform="translate(-32.24 -28.52)"/><path class="cls-1" d="M1492.65,132.65h0a25,25,0,0,0,37.5-21.65h0V67.69l-37.5,21.65h0a25,25,0,0,0,0,43.31Z" transform="translate(-32.24 -28.52)"/><path class="cls-1" d="M1572.23,212.22h0a25,25,0,0,0,43.3,0h0l21.65-37.5h-43.3a25,25,0,0,0-21.65,37.5Z" transform="translate(-32.24 -28.52)"/><path class="cls-1" d="M1601.35,320.91h0a25,25,0,0,0,37.5,21.65h0l37.5-21.65-37.5-21.65h0a25,25,0,0,0-37.5,21.65Z" transform="translate(-32.24 -28.52)"/><path class="cls-1" d="M1572.23,429.61h0a25,25,0,0,0,21.65,37.5h43.3l-21.65-37.5h0a25,25,0,0,0-43.3,0Z" transform="translate(-32.24 -28.52)"/><path class="cls-1" d="M1492.65,509.18h0a25,25,0,0,0,0,43.3h0l37.5,21.65v-43.3h0a25,25,0,0,0-37.5-21.65Z" transform="translate(-32.24 -28.52)"/><path class="cls-1" d="M1384,538.3h0a25,25,0,0,0-21.65,37.5h0L1384,613.3l21.65-37.5h0A25,25,0,0,0,1384,538.3Z" transform="translate(-32.24 -28.52)"/><path class="cls-1" d="M1275.26,509.18h0a25,25,0,0,0-37.5,21.65h0v43.3l37.5-21.65h0a25,25,0,0,0,0-43.3Z" transform="translate(-32.24 -28.52)"/><path class="cls-1" d="M1195.69,429.61h0a25,25,0,0,0-43.3,0h0l-21.65,37.5H1174a25,25,0,0,0,21.65-37.5Z" transform="translate(-32.24 -28.52)"/><path class="cls-1" d="M1166.57,320.91h0a25,25,0,0,0-37.5-21.65h0l-37.5,21.65,37.5,21.65h0a25,25,0,0,0,37.5-21.65Z" transform="translate(-32.24 -28.52)"/><path class="cls-1" d="M1195.69,212.22h0a25,25,0,0,0-21.65-37.5h-43.3l21.65,37.5h0a25,25,0,0,0,43.3,0Z" transform="translate(-32.24 -28.52)"/><path class="cls-1" d="M1275.26,132.65h0a25,25,0,0,0,0-43.31h0l-37.5-21.65V111h0a25,25,0,0,0,37.5,21.65Z" transform="translate(-32.24 -28.52)"/><path class="cls-1" d="M1384,103.52h0A25,25,0,0,0,1405.61,66h0L1384,28.52,1362.31,66h0a25,25,0,0,0,21.65,37.5Z" transform="translate(-32.24 -28.52)"/><path class="cls-2" d="M1384,133a241.59,241.59,0,0,0-53.2,59.52,239.27,239.27,0,0,1,53.2,18.8,239.36,239.36,0,0,1,53.19-18.8A241.35,241.35,0,0,0,1384,133Zm0,297.57a239.83,239.83,0,0,1-53.2,18.82,242.15,242.15,0,0,0,53.2,59.52,242,242,0,0,0,53.2-59.53A239.3,239.3,0,0,1,1384,430.53Z" transform="translate(-32.24 -28.52)"/><path class="cls-3" d="M1255.52,267.71a242,242,0,0,0-59.52,53.2,241.91,241.91,0,0,0,59.52,53.19,239.25,239.25,0,0,1,18.82-53.19A239.51,239.51,0,0,1,1255.52,267.71Zm256.86,0a238.76,238.76,0,0,1-18.8,53.2,239.19,239.19,0,0,1,18.8,53.19,242,242,0,0,0,59.54-53.19A242,242,0,0,0,1512.38,267.71Z" transform="translate(-32.24 -28.52)"/><path class="cls-4" d="M1446,255.31c-.43-.4-.88-.82-1.34-1.23a90,90,0,0,0-58.1-23.42h-.1l-.7,0h-3.63l-.68,0h-.1a90,90,0,0,0-59.44,24.66c-.09.08-.16.16-.24.24-.52.5-1,1-1.55,1.51s-1.18,1.2-1.76,1.8c-1.41,1.48-2.76,3-4.07,4.61q-2.76,3.34-5.2,6.95-1.23,1.8-2.35,3.66c-.75,1.25-1.48,2.51-2.17,3.78h0c-.26.48-.52.95-.77,1.45-.75,1.44-1.47,2.93-2.14,4.42-.46,1-.9,2-1.3,3s-.82,2-1.2,3.08h0q-.67,1.85-1.26,3.72c-.14.42-.27.84-.39,1.25-.2.65-.38,1.3-.56,2-.12.43-.24.86-.35,1.29-.2.76-.38,1.51-.56,2.27q-.36,1.53-.66,3.09a1.09,1.09,0,0,0,0,.25c-.23,1.13-.42,2.27-.6,3.43a2.93,2.93,0,0,0,0,.29c-.08.56-.15,1.12-.23,1.67s-.14,1.09-.19,1.64c-.06.39-.1.79-.13,1.18s-.07.68-.1,1c0,.53-.09,1.07-.13,1.61s-.05.86-.07,1.28c0,.7-.08,1.39-.1,2.07,0,.14,0,.28,0,.42v0c0,.12,0,.23,0,.35s0,.28,0,.42,0,.37,0,.55,0,.42,0,.64,0,.41,0,.63,0,.41,0,.62,0,.42,0,.62,0,.37,0,.56,0,.23,0,.34,0,.31,0,.46,0,.3,0,.45,0,.27,0,.41c0,.47,0,.95.06,1.43.09,1.72.23,3.42.42,5.11.06.57.13,1.13.2,1.69.29,2.24.66,4.46,1.12,6.64.11.55.23,1.09.35,1.63.19.82.37,1.64.59,2.43s.41,1.62.64,2.42.41,1.41.64,2.1.43,1.4.67,2.1c.46,1.35,1,2.68,1.47,4s1.13,2.78,1.75,4.13h0c.27.62.57,1.24.87,1.87.88,1.84,1.83,3.66,2.84,5.44.44.78.91,1.56,1.38,2.34h0c.75,1.24,1.53,2.45,2.35,3.66h0c1.21,1.8,2.5,3.54,3.84,5.25.45.57.89,1.14,1.36,1.69q1.95,2.39,4.07,4.61a241.35,241.35,0,0,1-21.95-25.77,239.75,239.75,0,0,1-40.89-89.47,242,242,0,0,1-4.46-79.71,242,242,0,0,1,79.7,4.48,239.13,239.13,0,0,1,89.47,40.88A243.51,243.51,0,0,1,1446,255.31Z" transform="translate(-32.24 -28.52)"/><path class="cls-4" d="M1516.87,453.81a242,242,0,0,1-79.71-4.47,239.55,239.55,0,0,1-89.47-40.88,241.93,241.93,0,0,1-25.75-21.93,89.94,89.94,0,0,0,59.41,24.63h.1l.68,0,1.82,0,1.81,0,.7,0h.1a89.9,89.9,0,0,0,58.1-23.42c.38-.33.74-.67,1.1-1l.2-.2,0,0c.09-.07.17-.16.25-.23l.22-.21.33-.32q.17-.15.33-.33c.23-.21.45-.43.67-.65.6-.6,1.18-1.2,1.76-1.81l0,0c.91-1,1.79-1.93,2.65-2.93h0c1-1.09,1.86-2.2,2.76-3.34a89.87,89.87,0,0,0,19.22-53.12v-.12c0-.23,0-.46,0-.69h0c0-.59,0-1.18,0-1.77v0c0-.61,0-1.21,0-1.81h0c0-.23,0-.46,0-.69v-.1a90.17,90.17,0,0,0-6.23-30.5c-.81-2-1.69-4.06-2.64-6s-2-3.91-3.06-5.8c-.72-1.27-1.47-2.5-2.26-3.73s-1.59-2.42-2.44-3.6-1.7-2.34-2.59-3.47q-2.57-3.27-5.42-6.27a243.1,243.1,0,0,1,21.94,25.74,239.39,239.39,0,0,1,40.87,89.46A241.77,241.77,0,0,1,1516.87,453.81Z" transform="translate(-32.24 -28.52)"/><path class="cls-5" d="M1512.38,267.71a238.76,238.76,0,0,1-18.8,53.2,238.84,238.84,0,0,0-22.07-36.27,243.1,243.1,0,0,0-21.94-25.74l0,0c-.09-.08-.16-.17-.24-.25h0l-.16-.17-.32-.32c-.11-.12-.23-.25-.36-.37s-.45-.46-.68-.69-.44-.45-.67-.66-.57-.58-.87-.85h0l-.24-.25a243.51,243.51,0,0,0-25.77-21.95A240.21,240.21,0,0,0,1384,211.28a239.36,239.36,0,0,1,53.19-18.8,242,242,0,0,1,79.71-4.48A241.75,241.75,0,0,1,1512.38,267.71Z" transform="translate(-32.24 -28.52)"/><path class="cls-5" d="M1384,430.53a239.83,239.83,0,0,1-53.2,18.82,242,242,0,0,1-79.71,4.46,242,242,0,0,1,4.47-79.71,239.25,239.25,0,0,1,18.82-53.19,237.72,237.72,0,0,0,22.07,36.27A241.35,241.35,0,0,0,1318.36,383c.58.61,1.16,1.21,1.76,1.8l.68.67c.37.37.74.73,1.12,1.08l0,0a241.93,241.93,0,0,0,25.75,21.93A239.33,239.33,0,0,0,1384,430.53Z" transform="translate(-32.24 -28.52)"/><text class="cls-6" transform="translate(0 390.75)">Q<tspan class="cls-1" x="227.7" y="0">U</tspan><tspan class="cls-7" x="430.65" y="0">O</tspan><tspan class="cls-1" x="650.92" y="0">TE</tspan></text></svg>