<svg xmlns="http://www.w3.org/2000/svg" width="1167.056" height="871.541" viewBox="0 0 1167.056 871.541">
  <g id="Background" transform="translate(-0.564 2)">
    <g id="Group_55" data-name="Group 55" transform="translate(650.2 238)">
      <path id="Fill_1" data-name="Fill 1" d="M36.925,56.624H35.506A35.505,35.505,0,0,1,0,21.119V0H72.43V21.119a35.5,35.5,0,0,1-35.506,35.5" transform="translate(264.688 0.8)" fill="#dceeff"/>
      <path id="Fill_4" data-name="Fill 4" d="M16.389,39.675H0V0H24.843Z" transform="translate(23.094 591.865)" fill="#b6d4ff"/>
      <path id="Fill_6" data-name="Fill 6" d="M0,524.014H284.655V0H0Z" transform="translate(6.704 67.851)" fill="#ecf6ff"/>
      <path id="Fill_8" data-name="Fill 8" d="M16.39,39.675H0V0H24.075Z" transform="translate(6.704 591.865)" fill="#ecf6ff"/>
      <path id="Fill_9" data-name="Fill 9" d="M13.177,39.675H0V0H19.356Z" transform="translate(291.359 591.865)" fill="#cce3ff"/>
      <path id="Fill_10" data-name="Fill 10" d="M7.686,39.675H24.074V0H0Z" transform="translate(267.285 591.865)" fill="#ecf6ff"/>
      <path id="Fill_11" data-name="Fill 11" d="M16.39,39.675H0V0H22.538Z" transform="translate(122.867 591.865)" fill="#b6d4ff"/>
      <path id="Fill_12" data-name="Fill 12" d="M20.758,39.675H5.663L0,0H20.758Z" transform="translate(355.28 591.865)" fill="#b6d4ff"/>
      <path id="Fill_13" data-name="Fill 13" d="M20.05,39.675H4.955L0,0H20.05Z" transform="translate(371.083 591.865)" fill="#cce3ff"/>
      <path id="Fill_14" data-name="Fill 14" d="M22.538,39.675H6.149L0,0H22.538Z" transform="translate(100.329 591.865)" fill="#c5e0fc"/>
      <path id="Fill_15" data-name="Fill 15" d="M0,92.609H260.58V0H0Z" transform="translate(18.742 276.314)" fill="#b6d4ff"/>
      <path id="Fill_16" data-name="Fill 16" d="M0,92.609H80.614V0H0Z" transform="translate(18.742 276.314)" fill="#cce3ff"/>
      <path id="Fill_17" data-name="Fill 17" d="M0,92.61H260.58V0H0Z" transform="translate(18.742 377.838)" fill="#b6d4ff"/>
      <path id="Fill_18" data-name="Fill 18" d="M0,92.61H80.614V0H0Z" transform="translate(18.742 377.838)" fill="#cce3ff"/>
      <path id="Fill_19" data-name="Fill 19" d="M0,92.61H260.58V0H0Z" transform="translate(18.742 479.362)" fill="#b6d4ff"/>
      <path id="Fill_20" data-name="Fill 20" d="M0,92.61H80.614V0H0Z" transform="translate(18.742 479.362)" fill="#cce3ff"/>
      <path id="Fill_21" data-name="Fill 21" d="M0,92.609H260.58V0H0Z" transform="translate(18.742 76.906)" fill="#b6d4ff"/>
      <path id="Fill_22" data-name="Fill 22" d="M0,92.609H80.614V0H0Z" transform="translate(18.742 76.906)" fill="#cce3ff"/>
      <path id="Fill_23" data-name="Fill 23" d="M0,88.335H260.58V0H0Z" transform="translate(18.742 179.064)" fill="#b6d4ff"/>
      <path id="Fill_24" data-name="Fill 24" d="M0,88.335H80.614V0H0Z" transform="translate(18.742 179.064)" fill="#cce3ff"/>
      <path id="Fill_25" data-name="Fill 25" d="M0,524.014H99.774V0H0Z" transform="translate(291.359 67.851)" fill="#cce3ff"/>
      <path id="Fill_26" data-name="Fill 26" d="M0,17H281.941V0H0Z" transform="translate(0 50.851)" fill="#e6f4ff"/>
      <path id="Fill_27" data-name="Fill 27" d="M0,17H115.726V0H0Z" transform="translate(281.941 50.851)" fill="#cce3ff"/>
      <path id="Fill_28" data-name="Fill 28" d="M73.774,8.166h0a8.166,8.166,0,0,1-8.166,8.166H0V0H65.608a8.166,8.166,0,0,1,8.166,8.166" transform="translate(170.015 437.783)" fill="#cce3ff"/>
      <path id="Fill_29" data-name="Fill 29" d="M29.118,4.727h0A4.727,4.727,0,0,1,24.39,9.455H.1a.1.1,0,0,1-.1-.1V.1A.1.1,0,0,1,.1,0H24.39a4.727,4.727,0,0,1,4.727,4.727" transform="translate(170.016 441.221)" fill="#dceeff"/>
      <path id="Fill_30" data-name="Fill 30" d="M79.85,0V16.333H8.166A8.166,8.166,0,0,1,8.166,0Z" transform="translate(173.207 454.115)" fill="#cce3ff"/>
      <path id="Fill_31" data-name="Fill 31" d="M34.028,0V9.364H4.682A4.682,4.682,0,0,1,4.682,0Z" transform="translate(219.029 457.599)" fill="#dceeff"/>
      <path id="Fill_32" data-name="Fill 32" d="M75.146,0V16.333H8.166A8.166,8.166,0,0,1,8.166,0Z" transform="translate(177.606 421.45)" fill="#cce3ff"/>
      <path id="Fill_33" data-name="Fill 33" d="M29.325,0V9.364H4.682A4.682,4.682,0,1,1,4.682,0Z" transform="translate(223.427 424.934)" fill="#dceeff"/>
      <path id="Fill_34" data-name="Fill 34" d="M0,62.788H44.91V0H0Z" transform="translate(80.666 306.316)" fill="#dceeff"/>
      <path id="Fill_35" data-name="Fill 35" d="M0,3.88H44.91V0H0Z" transform="translate(80.666 300.218)" fill="#dceeff"/>
      <path id="Fill_36" data-name="Fill 36" d="M53.145,10.864H4.838A4.838,4.838,0,0,1,0,6.026V4.838A4.837,4.837,0,0,1,4.838,0H53.145a4.837,4.837,0,0,1,4.838,4.838V6.026a4.838,4.838,0,0,1-4.838,4.838" transform="translate(74.13 304.098)" fill="#e6f4ff"/>
      <path id="Fill_37" data-name="Fill 37" d="M0,48.644H69.37V0H0Z" transform="translate(45.094 523.328)" fill="#ecf6ff"/>
      <path id="Fill_38" data-name="Fill 38" d="M0,48.644H51.139V0H0Z" transform="translate(114.464 523.328)" fill="#cce3ff"/>
      <path id="Fill_39" data-name="Fill 39" d="M41.492,7.71H0A7.71,7.71,0,0,1,7.71,0H33.782a7.71,7.71,0,0,1,7.71,7.71" transform="translate(59.353 539.94)" fill="#cce3ff"/>
      <path id="Fill_40" data-name="Fill 40" d="M0,48.644H69.37V0H0Z" transform="translate(143.741 523.328)" fill="#ecf6ff"/>
      <path id="Fill_41" data-name="Fill 41" d="M0,48.644H51.139V0H0Z" transform="translate(213.11 523.328)" fill="#cce3ff"/>
      <path id="Fill_42" data-name="Fill 42" d="M41.492,7.71H0A7.71,7.71,0,0,1,7.71,0H33.782a7.71,7.71,0,0,1,7.71,7.71" transform="translate(157.999 539.94)" fill="#cce3ff"/>
      <path id="Fill_43" data-name="Fill 43" d="M0,48.643H69.37V0H0Z" transform="translate(63.83 120.872)" fill="#ecf6ff"/>
      <path id="Fill_44" data-name="Fill 44" d="M0,48.643H51.139V0H0Z" transform="translate(133.2 120.872)" fill="#cce3ff"/>
      <path id="Fill_45" data-name="Fill 45" d="M41.492,7.71H0A7.71,7.71,0,0,1,7.71,0H33.782A7.71,7.71,0,0,1,41.492,7.71Z" transform="translate(78.089 137.484)" fill="#cce3ff"/>
      <path id="Fill_46" data-name="Fill 46" d="M.059,62.247,6.446,0H26.421l6.388,62.247A11.065,11.065,0,0,1,21.8,74.441H11.065A11.065,11.065,0,0,1,.059,62.247" transform="translate(210.923 192.958)" fill="#cce3ff"/>
      <path id="Fill_47" data-name="Fill 47" d="M0,61.5H16.1V0H0Z" transform="translate(56.046 408.948)" fill="#dceeff"/>
      <path id="Fill_48" data-name="Fill 48" d="M0,61.5H16.1V0H0Z" transform="translate(39.946 408.948)" fill="#ecf6ff"/>
      <path id="Fill_49" data-name="Fill 49" d="M0,61.5H16.1V0H0Z" transform="translate(72.146 408.948)" fill="#ecf6ff"/>
      <path id="Fill_50" data-name="Fill 50" d="M42.416,61.5H0V0H42.416a4.1,4.1,0,0,1,4.1,4.1V57.4a4.1,4.1,0,0,1-4.1,4.1" transform="translate(88.245 408.948)" fill="#dceeff"/>
      <path id="Fill_51" data-name="Fill 51" d="M0,6.089H32.732V0H0Z" transform="translate(95.138 417.908)" fill="#cce3ff"/>
      <path id="Fill_52" data-name="Fill 52" d="M0,6.089H18.146V0H0Z" transform="translate(102.431 427.302)" fill="#cce3ff"/>
      <path id="Fill_53" data-name="Fill 53" d="M35.506,45.7h0A35.506,35.506,0,0,1,0,10.193V0H71.011V10.193A35.506,35.506,0,0,1,35.506,45.7" transform="translate(147.865 328.28)" fill="#ecf6ff"/>
      <path id="Fill_54" data-name="Fill 54" d="M66.388,15.409a33.228,33.228,0,0,1-15.8,28.307H15.8A33.264,33.264,0,0,1,3.783,0H62.6a33.079,33.079,0,0,1,3.783,15.409" transform="translate(154.136 223.683)" fill="#dceeff"/>
    </g>
    <g id="Background_Object_Chair_5" data-name="Background Object / Chair / 5" transform="translate(468 525)">
      <g id="Group_14" data-name="Group 14" transform="translate(0 0.4)">
        <path id="Fill_1-2" data-name="Fill 1" d="M0,3.478-30.2,74.441H-43.888L-25.722,0Z" transform="translate(-384.651 269.01)" fill="#b6d4ff"/>
        <path id="Fill_2" data-name="Fill 2" d="M0,3.478-30.194,74.441H-43.887L-25.722,0Z" transform="translate(-230.4 269.01)" fill="#b6d4ff"/>
        <path id="Fill_3" data-name="Fill 3" d="M0,74.441H-13.693L-43.887,3.478-18.166,0Z" transform="translate(0 269.01)" fill="#b6d4ff"/>
        <path id="Fill_4-2" data-name="Fill 4" d="M0,74.441H-13.693l-30.2-70.962L-18.166,0Z" transform="translate(-154.251 269.01)" fill="#b6d4ff"/>
        <path id="Fill_5" data-name="Fill 5" d="M-178.571,172.207h0L0,171.824V0L-207.936,2.236l29.365,169.969ZM-13.6,13.747V158.253l-153.523.328L-191.815,15.664Z" transform="translate(-16.838 106.416)" fill="#b6d4ff"/>
        <path id="Fill_6-2" data-name="Fill 6" d="M-48,0,0,277.822H-209.4L-257.4,0Z" transform="translate(-203.167 0.8)" fill="#cce3ff"/>
        <path id="Fill_7" data-name="Fill 7" d="M-48,0,0,277.822H-206.86L-254.86,0Z" transform="translate(-146.858 0.8)" fill="#dceeff"/>
        <path id="Fill_8-2" data-name="Fill 8" d="M-22.763,97.987H-269a22.763,22.763,0,0,1-22.762-22.763V22.763A22.763,22.763,0,0,1-269,0H-22.763A22.763,22.763,0,0,1,0,22.763V75.224A22.763,22.763,0,0,1-22.763,97.987" transform="translate(-120.806 180.635)" fill="#cce3ff"/>
        <path id="Fill_10-2" data-name="Fill 10" d="M0,97.987H-218.083V0H0Z" transform="translate(-15.913 180.634)" fill="#dceeff"/>
        <path id="Fill_12-2" data-name="Fill 12" d="M-178.571,172.207h0L0,171.824V0L-207.937,2.236l29.366,169.969ZM-13.6,13.747V158.253l-153.523.328L-191.815,15.664Z" transform="translate(-233.996 106.416)" fill="#b6d4ff"/>
      </g>
    </g>
    <g id="Background_Object_Pluteus_2" data-name="Background Object / Pluteus / 2" transform="translate(395 123)">
      <g id="Group_21" data-name="Group 21" transform="translate(-0.2 0.8)">
        <path id="Fill_1-3" data-name="Fill 1" d="M-93.558,0A47.127,47.127,0,0,0-46.779,41.483,47.127,47.127,0,0,0,0,0Z" transform="translate(-274.853 29.193)" fill="#ecf6ff"/>
        <g id="Group_5" data-name="Group 5" transform="translate(-93.6 0.739)">
          <path id="Fill_3-2" data-name="Fill 3" d="M-93.558,0a47.127,47.127,0,0,0,46.78,41.483A47.127,47.127,0,0,0,0,0Z" transform="translate(-0.142 0.061)" fill="#ecf6ff"/>
        </g>
        <path id="Fill_6-3" data-name="Fill 6" d="M-93.558,0a47.127,47.127,0,0,0,46.78,41.483A47.127,47.127,0,0,0,0,0Z" transform="translate(-93.742 29.193)" fill="#ecf6ff"/>
        <path id="Fill_8-3" data-name="Fill 8" d="M0,0H-38.2l10.285,33.832h17.626Z" transform="translate(-216.655 35.772)" fill="#dceeff"/>
        <path id="Fill_10-3" data-name="Fill 10" d="M0,0H-38.2l10.285,33.832h17.626Z" transform="translate(-31.548 35.772)" fill="#dceeff"/>
        <path id="Fill_12-3" data-name="Fill 12" d="M0,0H-38.2l10.285,33.833h17.626Z" transform="translate(-216.655 13.68)" fill="#dceeff"/>
        <path id="Fill_14-2" data-name="Fill 14" d="M0,14.221H-338.542V0H0Z" transform="translate(0 63.442)" fill="#dceeff"/>
        <path id="Fill_16-2" data-name="Fill 16" d="M0,14.221H-55.694V0H0Z" transform="translate(-338.542 63.442)" fill="#cce3ff"/>
        <path id="Fill_17-2" data-name="Fill 17" d="M0,0-26.438,41.477V0Z" transform="translate(-82.512 77.663)" fill="#b6d4ff"/>
        <path id="Fill_18-2" data-name="Fill 18" d="M0,0-26.438,41.477h-14.63L-14.63,0Z" transform="translate(-67.882 77.663)" fill="#cce3ff"/>
        <path id="Fill_19-2" data-name="Fill 19" d="M0,0-26.438,41.477V0Z" transform="translate(-276.414 77.663)" fill="#b6d4ff"/>
        <path id="Fill_20-2" data-name="Fill 20" d="M0,0-26.438,41.477h-14.63L-14.63,0Z" transform="translate(-261.784 77.663)" fill="#cce3ff"/>
      </g>
    </g>
    <g id="Group_8" data-name="Group 8" transform="translate(658)">
      <path id="Fill_1-4" data-name="Fill 1" d="M0,165.44H195.078V0H0Z" transform="translate(11.971 0.5)" fill="#dceeff"/>
      <path id="Stroke_2" data-name="Stroke 2" d="M0,165.44H195.078V0H0Z" transform="translate(11.971 0.5)" fill="none" stroke="#dceeff" stroke-miterlimit="10" stroke-width="5"/>
      <path id="Fill_4-3" data-name="Fill 4" d="M0,165.44H195.078V0H0Z" transform="translate(0.5 0.722)" fill="#fff"/>
      <path id="Stroke_5" data-name="Stroke 5" d="M0,165.44H195.078V0H0Z" transform="translate(0.5 0.722)" fill="none" stroke="#dceeff" stroke-miterlimit="10" stroke-width="5"/>
      <path id="Fill_7-2" data-name="Fill 7" d="M0,97.526H125.847V0H0Z" transform="translate(33.726 34.457)" fill="#dceeff"/>
    </g>
    <g id="Group_8-2" data-name="Group 8" transform="translate(1032 62)">
      <path id="Fill_1-5" data-name="Fill 1" d="M0,105.248H125.255V0H0Z" transform="translate(7.865 0.499)" fill="#dceeff"/>
      <path id="Stroke_2-2" data-name="Stroke 2" d="M0,105.248H125.255V0H0Z" transform="translate(7.865 0.499)" fill="none" stroke="#dceeff" stroke-miterlimit="10" stroke-width="5"/>
      <path id="Fill_4-4" data-name="Fill 4" d="M0,105.248H125.254V0H0Z" transform="translate(0.5 0.641)" fill="#fff"/>
      <path id="Stroke_5-2" data-name="Stroke 5" d="M0,105.248H125.254V0H0Z" transform="translate(0.5 0.641)" fill="none" stroke="#dceeff" stroke-miterlimit="10" stroke-width="5"/>
      <path id="Fill_7-3" data-name="Fill 7" d="M0,62.043H80.8V0H0Z" transform="translate(21.833 22.102)" fill="#dceeff"/>
    </g>
  </g>
</svg>
