<svg id="Man_2" data-name="Man 2" xmlns="http://www.w3.org/2000/svg" width="420.815" height="832.665" viewBox="0 0 420.815 832.665">
  <g id="Man_Head_1" data-name="Man / Head / 1" transform="translate(112.522 0)">
    <g id="Group_30" data-name="Group 30">
      <path id="Fill_1" data-name="Fill 1" d="M0,25.957C0,40.293,9.218,51.914,20.589,51.914S41.177,40.293,41.177,25.957,31.959,0,20.589,0,0,11.621,0,25.957" transform="translate(14.543 18.119)" fill="#19141e"/>
      <g id="Face_color" data-name="Face color" transform="translate(16.538 30.13)">
        <path id="Face" d="M46.727,116.777l.862-29.813s-36.147,2.885-43.88-1.141c0,0-9.451-48.8,1.821-75.827l.225-1.053L82.039,0l4.276,43.871c2.57-7.6,23.776-16.209,29.319-5.332,12.014,23.57-30.94,39.441-30.94,39.441l4.361,39.154" transform="translate(0 0)" fill="#e576c6"/>
      </g>
      <path id="Fill_5" data-name="Fill 5" d="M0,5.238,24.375,0,.117,16.423Z" transform="translate(64.126 111.855)" opacity="0.399"/>
      <path id="Fill_7" data-name="Fill 7" d="M8.423,0,0,20.638l10.1.129Z" transform="translate(36.218 73.444)" fill="#405fd3"/>
      <path id="Fill_9" data-name="Fill 9" d="M.084,4.2A5.1,5.1,0,1,0,6.013.082,5.1,5.1,0,0,0,.084,4.2" transform="translate(53.539 70.033)" fill="#0d0b6d"/>
      <path id="Fill_11" data-name="Fill 11" d="M.084,4.2A5.1,5.1,0,1,0,6.013.082,5.1,5.1,0,0,0,.084,4.2" transform="translate(25.235 70.033)" fill="#0d0b6d"/>
      <path id="Hair" d="M97.193,81.488c7.232-12.406,17.7-16.188,22.394-17.3a105.022,105.022,0,0,0,4.3-18.414c2.691-17.914-10.305-34.259-20.8-38.952C92.461,2.073,74.139-4.509,47.32,4.423,29.29,10.434,17.765-3.957,7.155,2.189c-18.13,10.5-1.267,56.5,44.7,44.814,32.895-8.355,33.736-6.258,34.018-.183C86.785,66.457,89.84,78.01,97.193,81.488Z" transform="translate(-0.004 0.001)" fill="#2f2f3d"/>
      <g id="Group_21" data-name="Group 21" transform="translate(48.418 94.978)">
        <path id="Fill_18" data-name="Fill 18" d="M10.246,0A11.916,11.916,0,0,1,0,5.762" transform="translate(0 0)" fill="#fff"/>
        <path id="Stroke_20" data-name="Stroke 20" d="M10.246,0A11.916,11.916,0,0,1,0,5.762" transform="translate(0 0)" fill="none" stroke="#252535" stroke-miterlimit="10" stroke-width="4"/>
      </g>
      <path id="Stroke_22" data-name="Stroke 22" d="M0,11.7A11.674,11.674,0,1,0,11.675,0,11.674,11.674,0,0,0,0,11.7Z" transform="translate(47.087 62.786)" fill="none" stroke="#252535" stroke-miterlimit="10" stroke-width="4"/>
      <path id="Stroke_24" data-name="Stroke 24" d="M0,11.7A11.674,11.674,0,1,0,11.674,0,11.674,11.674,0,0,0,0,11.7Z" transform="translate(17.693 62.786)" fill="none" stroke="#252535" stroke-miterlimit="10" stroke-width="4"/>
      <path id="Stroke_26" data-name="Stroke 26" d="M0,.454H5.048" transform="translate(41.991 74.573)" fill="none" stroke="#252535" stroke-miterlimit="10" stroke-width="4"/>
      <path id="Stroke_28" data-name="Stroke 28" d="M0,.454H28.837" transform="translate(70.435 74.031)" fill="none" stroke="#252535" stroke-miterlimit="10" stroke-width="4"/>
    </g>
    <g id="Group_30-2" data-name="Group 30">
      <path id="Fill_1-2" data-name="Fill 1" d="M0,25.957C0,40.293,9.218,51.914,20.589,51.914S41.177,40.293,41.177,25.957,31.959,0,20.589,0,0,11.621,0,25.957" transform="translate(14.543 18.119)" fill="#19141e"/>
      <g id="Face_color-2" data-name="Face color" transform="translate(16.538 30.13)">
        <path id="Face-2" data-name="Face" d="M46.727,116.777l.862-29.813s-36.147,2.885-43.88-1.141c0,0-9.451-48.8,1.821-75.827l.225-1.053L82.039,0l4.276,43.871c2.57-7.6,23.776-16.209,29.319-5.332,12.014,23.57-30.94,39.441-30.94,39.441l4.361,39.154" transform="translate(0 0)" fill="#e576c6"/>
      </g>
      <path id="Fill_5-2" data-name="Fill 5" d="M0,5.238,24.375,0,.117,16.423Z" transform="translate(64.126 111.855)" opacity="0.399"/>
      <path id="Fill_7-2" data-name="Fill 7" d="M8.423,0,0,20.638l10.1.129Z" transform="translate(36.218 73.444)" fill="#405fd3"/>
      <path id="Fill_9-2" data-name="Fill 9" d="M.084,4.2A5.1,5.1,0,1,0,6.013.082,5.1,5.1,0,0,0,.084,4.2" transform="translate(53.539 70.033)" fill="#0d0b6d"/>
      <path id="Fill_11-2" data-name="Fill 11" d="M.084,4.2A5.1,5.1,0,1,0,6.013.082,5.1,5.1,0,0,0,.084,4.2" transform="translate(25.235 70.033)" fill="#0d0b6d"/>
      <path id="Hair-2" data-name="Hair" d="M97.193,81.488c7.232-12.406,17.7-16.188,22.394-17.3a105.022,105.022,0,0,0,4.3-18.414c2.691-17.914-10.305-34.259-20.8-38.952C92.461,2.073,74.139-4.509,47.32,4.423,29.29,10.434,17.765-3.957,7.155,2.189c-18.13,10.5-1.267,56.5,44.7,44.814,32.895-8.355,33.736-6.258,34.018-.183C86.785,66.457,89.84,78.01,97.193,81.488Z" transform="translate(-0.004 0.001)" fill="#2f2f3d"/>
      <g id="Group_21-2" data-name="Group 21" transform="translate(48.418 94.978)">
        <path id="Fill_18-2" data-name="Fill 18" d="M10.246,0A11.916,11.916,0,0,1,0,5.762" transform="translate(0 0)" fill="#fff"/>
        <path id="Stroke_20-2" data-name="Stroke 20" d="M10.246,0A11.916,11.916,0,0,1,0,5.762" transform="translate(0 0)" fill="none" stroke="#252535" stroke-miterlimit="10" stroke-width="4"/>
      </g>
      <path id="Stroke_22-2" data-name="Stroke 22" d="M0,11.7A11.674,11.674,0,1,0,11.675,0,11.674,11.674,0,0,0,0,11.7Z" transform="translate(47.087 62.786)" fill="none" stroke="#252535" stroke-miterlimit="10" stroke-width="4"/>
      <path id="Stroke_24-2" data-name="Stroke 24" d="M0,11.7A11.674,11.674,0,1,0,11.674,0,11.674,11.674,0,0,0,0,11.7Z" transform="translate(17.693 62.786)" fill="none" stroke="#252535" stroke-miterlimit="10" stroke-width="4"/>
      <path id="Stroke_26-2" data-name="Stroke 26" d="M0,.454H5.048" transform="translate(41.991 74.573)" fill="none" stroke="#252535" stroke-miterlimit="10" stroke-width="4"/>
      <path id="Stroke_28-2" data-name="Stroke 28" d="M0,.454H28.837" transform="translate(70.435 74.031)" fill="none" stroke="#252535" stroke-miterlimit="10" stroke-width="4"/>
    </g>
  </g>
  <g id="Man_Legs_1" data-name="Man / Legs / 1" transform="translate(0 316.198)">
    <g id="Group_20" data-name="Group 20">
      <g id="Shoes" transform="translate(0 358.604)">
        <path id="Shoes-2" data-name="Shoes" d="M118.6,96.3,89.164,94.744,82.212,117.16S27.925,94.876,0,103.331l94.1,54.532ZM420.815,48.387,355.667,0,345.092,28.243l30.441,27.923a326.76,326.76,0,0,0-6.429,36.1,298.638,298.638,0,0,0-1.064,48.265Z" fill="#0d0b6d"/>
      </g>
      <g id="Skin_legs" data-name="Skin legs" transform="translate(82.214 358.578)">
        <path id="Skin" d="M34.828,101.184l-29.1-2.621L0,117.191l24.086,10.05Zm276.567-72.8L273.895,0l-3.347,35.385L293.32,56.193Z" fill="#e576c6"/>
      </g>
      <g id="Pants" transform="translate(61.903)">
        <path id="Pants-2" data-name="Pants" d="M81.18,100.369,0,463.41l22.36,5.706h.01l26.03,6.652.13.03,9.01,2.3s41.36-130.5,77.771-246.92a401.212,401.212,0,0,0,30.071,42.56C245.17,372.284,293.99,414.406,293.99,414.406l7.26-10.944.02-.03,17.45-26.3,12.62-19.019S222.08,254.967,172.92,109.868c8.641-28.25,14.631-48.417,16.17-54.868,8.81-36.8,8.99-53.654,8.99-55H65.74A544.155,544.155,0,0,0,81.18,100.368Z" fill="#19141e"/>
      </g>
      <g id="Overlay" transform="translate(61.902)">
        <path id="Mask" d="M0,463.41l22.36,5.706h.01l26.03,6.652.13.03,9.01,2.3S98.9,347.6,135.311,231.177c14.21-45.449,27.66-88.747,37.609-121.31C181.561,81.618,187.551,61.451,189.09,55c8.81-36.8,8.99-53.656,8.99-55H103.62L81.18,100.368Z" fill="rgba(255,255,255,0.1)"/>
      </g>
    </g>
    <g id="Group_20-2" data-name="Group 20">
      <g id="Shoes-3" data-name="Shoes" transform="translate(0 358.604)">
        <path id="Shoes-4" data-name="Shoes" d="M118.6,96.3,89.164,94.744,82.212,117.16S27.925,94.876,0,103.331l94.1,54.532ZM420.815,48.387,355.667,0,345.092,28.243l30.441,27.923a326.76,326.76,0,0,0-6.429,36.1,298.638,298.638,0,0,0-1.064,48.265Z" fill="#0d0b6d"/>
      </g>
      <g id="Skin_legs-2" data-name="Skin legs" transform="translate(82.214 358.578)">
        <path id="Skin-2" data-name="Skin" d="M34.828,101.184l-29.1-2.621L0,117.191l24.086,10.05Zm276.567-72.8L273.895,0l-3.347,35.385L293.32,56.193Z" fill="#e576c6"/>
      </g>
      <g id="Pants-3" data-name="Pants" transform="translate(61.903)">
        <path id="Pants-4" data-name="Pants" d="M81.18,100.369,0,463.41l22.36,5.706h.01l26.03,6.652.13.03,9.01,2.3s41.36-130.5,77.771-246.92a401.212,401.212,0,0,0,30.071,42.56C245.17,372.284,293.99,414.406,293.99,414.406l7.26-10.944.02-.03,17.45-26.3,12.62-19.019S222.08,254.967,172.92,109.868c8.641-28.25,14.631-48.417,16.17-54.868,8.81-36.8,8.99-53.654,8.99-55H65.74A544.155,544.155,0,0,0,81.18,100.368Z" fill="#19141e"/>
      </g>
      <g id="Overlay-2" data-name="Overlay" transform="translate(61.902)">
        <path id="Mask-2" data-name="Mask" d="M0,463.41l22.36,5.706h.01l26.03,6.652.13.03,9.01,2.3S98.9,347.6,135.311,231.177c14.21-45.449,27.66-88.747,37.609-121.31C181.561,81.618,187.551,61.451,189.09,55c8.81-36.8,8.99-53.656,8.99-55H103.62L81.18,100.368Z" fill="rgba(255,255,255,0.1)"/>
      </g>
    </g>
  </g>
  <g id="Man_Body_5" data-name="Man / Body / 5" transform="translate(67.663 118.877)">
    <g id="Group_32" data-name="Group 32" transform="translate(0 0)">
      <g id="Hoody" transform="translate(0 22.015)">
        <path id="Hoody-2" data-name="Hoody" d="M199.489,194.975c14.185,0,24.947-11.754,22.532-24.607l-1.552-8.26c19.858-7.03,45.291-21.826,47.523-51.765,2.76-37.043-30.84-70.722-53.822-89.228A57.194,57.194,0,0,0,195.693,7.148C167.488-6,111.785,3.021,111.785,3.021,91.165,9.246,77.3,12.547,67.952,22.606,44.752,39.665,1.119,76.92.013,116.519c-.715,25.615,27.743,39.544,48.275,46.244l-1.282,8.188c-1.984,12.675,8.708,24.024,22.634,24.024Z" transform="translate(0 0)" fill="#ce3d29"/>
      </g>
      <path id="Path" d="M4.362,34.974,0,31l4.362,3.974L21.062,0Z" transform="translate(62.449 75.421)" fill="none" stroke="#000" stroke-miterlimit="10" stroke-width="5" opacity="0.199"/>
      <path id="Path-2" data-name="Path" d="M.178,0l16.7,15.206L.178,0,0,.373Z" transform="translate(66.633 110.395)" fill="none" stroke="#000" stroke-miterlimit="10" stroke-width="5" opacity="0.199"/>
      <path id="Path-3" data-name="Path" d="M19.854,39.839l11.239-5.581-11.239,5.58L0,0Z" transform="translate(169.215 66.765)" fill="none" stroke="#000" stroke-miterlimit="10" stroke-width="5" opacity="0.199"/>
      <path id="Path-4" data-name="Path" d="M38.262,0,0,19,38.262,0l1.005,2.018Z" transform="translate(150.808 106.604)" fill="none" stroke="#000" stroke-miterlimit="10" stroke-width="5" opacity="0.199"/>
      <path id="Fill_24" data-name="Fill 24" d="M0,12.184a6.257,6.257,0,1,0,12.514,0C12.512,8.749,6.255,0,6.255,0S0,8.749,0,12.184" transform="translate(116.335 50.248)" opacity="0.203"/>
      <path id="Stroke_28-3" data-name="Stroke 28" d="M26.245,64.233S.145,63.881,0,0" transform="translate(150.807 122.058)" fill="none" stroke="#000" stroke-miterlimit="10" stroke-width="5" opacity="0.196"/>
      <path id="Stroke_30" data-name="Stroke 30" d="M0,58.654S19.893,58.333,20,0" transform="translate(62.449 124.655)" fill="none" stroke="#000" stroke-miterlimit="10" stroke-width="5" opacity="0.199"/>
      <path id="Stroke_22-3" data-name="Stroke 22" d="M9.708,0C5.835,27.761-4.47,54.4,2.187,148.3" transform="translate(111.55 68.651)" fill="none" stroke="#000" stroke-miterlimit="10" stroke-width="3" opacity="0.203"/>
      <g id="Pockets_and_hood" data-name="Pockets and hood" transform="translate(62.464)">
        <path id="Pockets" d="M51.7,201.254h62.725l-1-14.558c-15.735-5.531-24.638-24.434-24.37-64.638l-35.919.527-31.774.467C21.048,158.225,14.608,174.132,1,185.7L0,201.254ZM111.384,23.528l30.153,9.26S134.837-.085,92.116,0C72.077.04,67.889,11.1,69.091,22.825c.042.412,1.9.064,2.521,0,3.6-.376,4.593-.4,7.3-.555l.226-.012L60.712,42.535l-11.9-31.211L24.917,31.77,61.152,54.632S98.948,30.908,111.384,23.528Z" transform="translate(0 0)" fill="#efefef"/>
      </g>
      <path id="Stroke_22-4" data-name="Stroke 22" d="M9.809,0C5.632,25.195-4.442,54.167,2.215,148.071" transform="translate(111.448 68.651)" fill="none" stroke="#000" stroke-miterlimit="10" stroke-width="3" opacity="0.201"/>
    </g>
    <g id="Group_32-2" data-name="Group 32" transform="translate(0 0)">
      <g id="Hoody-3" data-name="Hoody" transform="translate(0 22.015)">
        <path id="Hoody-4" data-name="Hoody" d="M199.489,194.975c14.185,0,24.947-11.754,22.532-24.607l-1.552-8.26c19.858-7.03,45.291-21.826,47.523-51.765,2.76-37.043-30.84-70.722-53.822-89.228A57.194,57.194,0,0,0,195.693,7.148C167.488-6,111.785,3.021,111.785,3.021,91.165,9.246,77.3,12.547,67.952,22.606,44.752,39.665,1.119,76.92.013,116.519c-.715,25.615,27.743,39.544,48.275,46.244l-1.282,8.188c-1.984,12.675,8.708,24.024,22.634,24.024Z" transform="translate(0 0)" fill="#ce3d29"/>
      </g>
      <path id="Path-5" data-name="Path" d="M4.362,34.974,0,31l4.362,3.974L21.062,0Z" transform="translate(62.449 75.421)" fill="none" stroke="#000" stroke-miterlimit="10" stroke-width="5" opacity="0.199"/>
      <path id="Path-6" data-name="Path" d="M.178,0l16.7,15.206L.178,0,0,.373Z" transform="translate(66.633 110.395)" fill="none" stroke="#000" stroke-miterlimit="10" stroke-width="5" opacity="0.199"/>
      <path id="Path-7" data-name="Path" d="M19.854,39.839l11.239-5.581-11.239,5.58L0,0Z" transform="translate(169.215 66.765)" fill="none" stroke="#000" stroke-miterlimit="10" stroke-width="5" opacity="0.199"/>
      <path id="Path-8" data-name="Path" d="M38.262,0,0,19,38.262,0l1.005,2.018Z" transform="translate(150.808 106.604)" fill="none" stroke="#000" stroke-miterlimit="10" stroke-width="5" opacity="0.199"/>
      <path id="Fill_24-2" data-name="Fill 24" d="M0,12.184a6.257,6.257,0,1,0,12.514,0C12.512,8.749,6.255,0,6.255,0S0,8.749,0,12.184" transform="translate(116.335 50.248)" opacity="0.203"/>
      <path id="Stroke_28-4" data-name="Stroke 28" d="M26.245,64.233S.145,63.881,0,0" transform="translate(150.807 122.058)" fill="none" stroke="#000" stroke-miterlimit="10" stroke-width="5" opacity="0.196"/>
      <path id="Stroke_30-2" data-name="Stroke 30" d="M0,58.654S19.893,58.333,20,0" transform="translate(62.449 124.655)" fill="none" stroke="#000" stroke-miterlimit="10" stroke-width="5" opacity="0.199"/>
      <path id="Stroke_22-5" data-name="Stroke 22" d="M9.708,0C5.835,27.761-4.47,54.4,2.187,148.3" transform="translate(111.55 68.651)" fill="none" stroke="#000" stroke-miterlimit="10" stroke-width="3" opacity="0.203"/>
      <g id="Pockets_and_hood-2" data-name="Pockets and hood" transform="translate(62.464)">
        <path id="Pockets-2" data-name="Pockets" d="M51.7,201.254h62.725l-1-14.558c-15.735-5.531-24.638-24.434-24.37-64.638l-35.919.527-31.774.467C21.048,158.225,14.608,174.132,1,185.7L0,201.254ZM111.384,23.528l30.153,9.26S134.837-.085,92.116,0C72.077.04,67.889,11.1,69.091,22.825c.042.412,1.9.064,2.521,0,3.6-.376,4.593-.4,7.3-.555l.226-.012L60.712,42.535l-11.9-31.211L24.917,31.77,61.152,54.632S98.948,30.908,111.384,23.528Z" transform="translate(0 0)" fill="#efefef"/>
      </g>
      <path id="Stroke_22-6" data-name="Stroke 22" d="M9.809,0C5.632,25.195-4.442,54.167,2.215,148.071" transform="translate(111.448 68.651)" fill="none" stroke="#000" stroke-miterlimit="10" stroke-width="3" opacity="0.201"/>
    </g>
  </g>
</svg>
