<svg xmlns="http://www.w3.org/2000/svg" width="580" height="883" viewBox="0 0 580 883">
  <g id="Groupe_1" data-name="Groupe 1" transform="translate(-217 16)">
    <g id="Girl_Head_5" data-name="Girl / Head / 5" transform="translate(313 -16)">
      <g id="Group_31" data-name="Group 31" transform="translate(0 0)">
        <path id="Hair" d="M146.08,127.826a21.915,21.915,0,0,1,.309,3.678q0,.048,0,.1a54.47,54.47,0,0,1-47.426,91.154L46.907,215.41A54.5,54.5,0,0,1,36.892,109.863,38.978,38.978,0,0,1,65.147,49.511a34.347,34.347,0,0,1-1.141-14.8h0A34.767,34.767,0,0,1,103.175,5.225a34.347,34.347,0,0,1,13.143,4.708A75.578,75.578,0,0,1,154.087,0c39,0,70.612,28.706,70.612,64.117s-31.614,64.117-70.612,64.117a78.531,78.531,0,0,1-8.007-.408Z" transform="translate(0 0)" fill="#fcbda4"/>
        <path id="Fill_11" data-name="Fill 11" d="M18.442,2.628S5.512,3.01,0,0L17.755,11.147Z" transform="translate(146.404 138.267)" fill="#cf3e83"/>
        <g id="Face_color" data-name="Face color" transform="translate(115 67.235)">
          <path id="Face" d="M17.851,43.571C11.1,37.677.015,34.789,0,24.607c-.006-3.577,2.086-9.771,9.807-9.782,9.786-.015,9.014,11.056,8.9,12.289l-.011.063H18.7c0,.031-.005.048-.005.048a5.258,5.258,0,0,0,3.34.173c7.935.09,28.091-2.316,39.33-27.4A42.185,42.185,0,0,0,69.3,6.522a44.864,44.864,0,0,0,29.2,6.541C97.851,25.73,94.135,57.884,78.1,68.55c-6.592,4.384-18.594,4.924-28.82,4.334l-2.344,29.043S15.705,88.313,14.417,84.6a21.782,21.782,0,0,0,3.434-41.029Z" transform="translate(0.565 0.777)" fill="#ed4848"/>
        </g>
        <path id="Fill_15" data-name="Fill 15" d="M1.185,0l7.4,17.94L0,17.768Z" transform="translate(191.771 95.214)" fill="#405fd3"/>
        <path id="Fill_17" data-name="Fill 17" d="M8.762,6.746c-.185,3.584-2.292,6.376-4.708,6.237S-.171,9.826.013,6.242,2.3-.134,4.721,0,8.946,3.163,8.762,6.746" transform="translate(176.315 89.246)" fill="#0d0b6d"/>
        <path id="Fill_19" data-name="Fill 19" d="M8.762,6.747c-.185,3.584-2.292,6.376-4.708,6.237S-.171,9.827.013,6.243,2.3-.134,4.721,0,8.946,3.163,8.762,6.747" transform="translate(199.002 88.673)" fill="#0d0b6d"/>
        <path id="Stroke_21" data-name="Stroke 21" d="M11.2,4.427S5.605,6.233,0,0" transform="translate(178.465 117.148)" fill="none" stroke="#1c295e" stroke-miterlimit="10" stroke-width="3"/>
        <path id="Fill_23" data-name="Fill 23" d="M18.442,2.629S5.511,3.011,0,0L17.755,11.147Z" transform="translate(146.383 138.266)" opacity="0.402"/>
      </g>
    </g>
    <g id="Girl_Legs_4" data-name="Girl / Legs / 4" transform="translate(217 238)">
      <g id="Group_19" data-name="Group 19" transform="translate(111 52)">
        <g id="Shoes" transform="translate(0 489.52)">
          <path id="Shoes-2" data-name="Shoes" d="M0,60.027C7.8,35.159,30.321,31.253,30.321,31.253l-.237-26.68,23.34-.506,2.584,26,2.537,29.964ZM157.337,0l21.094,9.793-2.4,20.959s44.676,11.712,61.47,29.131l-82.35.143Z" transform="translate(0 0)" fill="#0d0b6d"/>
        </g>
        <g id="Skin_color" data-name="Skin color" transform="translate(30.14 487.07)">
          <path id="Skin" d="M0,32.513,3.049,0,25.816,8l-.129,25.7Zm126.033-.142.68-25.362L148.841,15.8l-.19,17.4Z" transform="translate(0 0)" fill="#e576c6"/>
        </g>
        <g id="Pants" transform="translate(20.484)">
          <path id="Pants-2" data-name="Pants" d="M3.675,499.419c1.044-32.51,7.784-237.873,14.709-360.053C23.183,54.681,59.1,8.056,65.838,0h85.573c.156,1.082,11.675,82.617,13.783,253.225,1.892,152.789-.059,236.3-.3,246.125v0l2.733,0,.018,13.153-44.312.071-.018-13.153,1.528,0h0l-22.5-267.37L95.6,152.026,44.438,499.35v0l2.213,0L45.877,512.5,0,512.576l.773-13.152,2.9,0Z" transform="translate(0.912 0)" fill="#2f2f3d"/>
        </g>
        <path id="Fill_17-2" data-name="Fill 17" d="M0,78.281,9.207,0,6.737,158.3Z" transform="translate(116.993 73.749)" fill="#0a0a0f" opacity="0.398"/>
      </g>
    </g>
    <g id="Girl_Body_3" data-name="Girl / Body / 3" transform="translate(340 121.852)">
      <g id="Group_24" data-name="Group 24" transform="translate(0 -0.001)">
        <path id="Fill_6" data-name="Fill 6" d="M6.91.72,0,.619S.01.51.019.28C2.4.449,4.7.589,6.91.72" transform="translate(75.092 167.971)" fill="#c83820"/>
        <g id="Sweater_color" data-name="Sweater color">
          <path id="Sweater" d="M222.8,243.57l-22.811,2.859-36.739-57.46-1.341-19.1-55.969-.83-23.89-.35H82c-2.21-.131-4.511-.27-6.89-.44C45.022,166.15,3.332,160.3.472,144.1c-5.19-29.34,34.07-86.279,38.71-92.879.29-.41.439-.63.439-.63,6.58-9.4,13.2-16.71,19.381-20.6,12.02-7.57,23.29-9.231,34-9.2L95.871,0l43.691,6.029-2.38,17.281c12.83,1.23,21.559,3.739,29.729,11.239C193.142,58.63,195.072,148.82,195.072,148.82Z" transform="translate(0 0.001)" fill="#72a065"/>
        </g>
        <path id="Fill_10" data-name="Fill 10" d="M23.89.475v.4S13.87.895,0,.125Z" transform="translate(82.051 168.566)" fill="#c83820"/>
        <path id="Stroke_12" data-name="Stroke 12" d="M0,95.051C3.208,54.308,25.413,45.693,9.413,0" transform="translate(161.107 74.588)" fill="none" stroke="#000" stroke-miterlimit="10" stroke-width="3" opacity="0.201"/>
        <path id="Fill_14" data-name="Fill 14" d="M87.392,134.99,3.954,125.372a4.462,4.462,0,0,1-3.783-5.648L33.139,3.246a4.462,4.462,0,0,1,4.8-3.217l83.438,9.617a4.461,4.461,0,0,1,3.782,5.648L92.2,131.771a4.463,4.463,0,0,1-4.8,3.218" transform="translate(111.492 85.054)" fill="#18181c"/>
        <path id="iPad" d="M8.332,90.889q.238.064.482.132a47.257,47.257,0,0,0,19.963,1.453c5.3-.693,9.858-1.6,9.807-2.445-.146-2.137-2.719-2.616-2.719-2.616l-4.95.239-4.762-.282s21.878-4.138,21.878-4.779c-.068-2.257-3.659-3.172-3.659-3.172s7.523-1.2,7.437-2.394c-.205-3.043-3.564-3.274-3.564-3.274s.932-.8.838-1.548c-.368-3-5.72-3.5-8.268-3.864,0,0-8.669-.119-11.251-.761A67.025,67.025,0,0,1,16.2,63.1L33.139,3.246a4.463,4.463,0,0,1,4.8-3.217l83.438,9.618a4.46,4.46,0,0,1,3.782,5.647L92.2,131.771a4.462,4.462,0,0,1-4.8,3.218L3.954,125.372a4.463,4.463,0,0,1-3.783-5.648L8.332,90.889Z" transform="translate(116.459 85.626)" fill="#fcbda4"/>
        <g id="Skin_color-2" data-name="Skin color" transform="translate(97 136)">
          <path id="Skin-2" data-name="Skin" d="M130.932,153.247s-5.169,4.371-7.318,4.3c-20.24-.69-19.156-10.937-18.677-12.221,1.075-2.882,6.478.414,6.478.414s-10.388-21.073-7.888-35.819l21.833-2.737c5.244,6.171,11.63,13.843,12.56,15.67,1.614,3.171,4.6,18.868,4.457,21.97s-9.444,17.037-9.444,17.037C127.164,160.444,130.932,153.247,130.932,153.247ZM28.229,40.208c-.488-.138-.958-.257-1.41-.376-5.968-1.565-8.627-1.856-16.3-6.037A72.287,72.287,0,0,1,0,26.4L5.531,5.933l7.626-2.606A57.086,57.086,0,0,1,22.673.837C26.426.145,30.089.419,33.962,0l-2.2,8.063a9.112,9.112,0,0,0-.746,1.017c.164.136.326.29.514.461,1.581,1.445,4.573,4.01,17.449,7.224,2.582.642,11.251.76,11.251.76,2.548.367,7.9.863,8.268,3.865.094.743-.838,1.548-.838,1.548s3.359.23,3.564,3.273c.085,1.2-7.438,2.394-7.438,2.394s3.591.915,3.659,3.173c0,.641-21.878,4.779-21.878,4.779l4.762.282,4.95-.239s2.573.479,2.719,2.615c.051.846-4.505,1.752-9.806,2.445a51.653,51.653,0,0,1-6.771.464A48.336,48.336,0,0,1,28.229,40.208Z" transform="translate(0.044 0.439)" fill="#ed4848"/>
        </g>
        <path id="Stroke_4" data-name="Stroke 4" d="M0,0S2.84,10.729,12.587,14.072C16,15.241,15.145,29.041,23.5,27.391" transform="translate(212.592 254.051)" fill="none" stroke="#000" stroke-miterlimit="10" stroke-width="3" opacity="0.148"/>
        <path id="Fill_20" data-name="Fill 20" d="M4.221,4.408c-.657,2.064-2.059,3.461-3.132,3.12S-.321,5.236.336,3.172,2.395-.29,3.468.051s1.41,2.292.753,4.357" transform="translate(153.855 92.099)" fill="#020101"/>
        <path id="Stroke_22" data-name="Stroke 22" d="M21.06,0,0,34.872,52.363,55.591" transform="translate(52.969 82.667)" fill="none" stroke="#000" stroke-miterlimit="10" stroke-width="3" opacity="0.2"/>
      </g>
    </g>
  </g>
</svg>
