<?xml version="1.0" encoding="utf-8"?>
<!-- Generator: Adobe Illustrator 23.0.3, SVG Export Plug-In . SVG Version: 6.00 Build 0)  -->
<svg version="1.1" id="Character_Man_1_Copy_3" xmlns="http://www.w3.org/2000/svg" xmlns:xlink="http://www.w3.org/1999/xlink"
	 x="0px" y="0px" viewBox="0 0 679 1029" style="enable-background:new 0 0 679 1029;" xml:space="preserve">
<style type="text/css">
	.st0{fill:#19141E;}
	.st1{fill:#5E93D1;}
	.st2{opacity:0.4;enable-background:new    ;}
	.st3{fill:#125475;}
	.st4{fill:#0D0B6D;}
	.st5{fill:#FFFFFF;}
	.st6{fill:none;stroke:#252535;stroke-width:4;stroke-miterlimit:10;}
	.st7{fill:#E576C6;}
	.st8{opacity:0.201;fill:none;stroke:#000000;stroke-width:5;stroke-miterlimit:10;enable-background:new    ;}
	.st9{fill:#020101;}
</style>
<g id="Man_Head_1" transform="translate(245 69)">
	<g id="Head" transform="translate(36 31)">
		<path id="Fill_1" class="st0" d="M-33.9,46.3c0,0-25.4,33.1,9.1,41.9L-33.9,46.3z"/>
		<g id="Face_color" transform="translate(0.675 42.195)">
			<path id="Face" class="st1" d="M12.6,118l0.8-29.2c0,0-36.3,2.8-43.9-1.1c0,0-5.8-35.5-0.3-60.7L-0.9,0l48.1,3.6l5.5,43.7
				c2.5-7.4,25.4-16.8,30.9-0.1C90.7,68.7,49.8,80,49.8,80l4.3,38.4"/>
		</g>
		<path id="Hair" class="st0" d="M70,44.1l11.8-12l-6.4-6.3l-10.8,11l-1-0.5l2.8-15.5l-8.9-1.6l-2.2,12.4
			c-21.5-13.1-38.4-2.9-38.4-2.9S10-0.1-8.9,0C-35.9,0.1-40,41.9-40,41.9s-13.6-22.7-21.3-19.5s-7.9,78.7,99.3,41.9
			c0,0-9.2,20.8,15.4,25c0,0,4.3-8.9,18.8-9.4C72.2,80,94.5,70.9,70,44.1z"/>
		<path id="Fill_10" class="st2" d="M14.2,131l23.9-5.1L14.3,142L14.2,131z"/>
		<path id="Fill_12" class="st3" d="M-6,87l-8.3,20.2l9.9,0.1L-6,87z"/>
		<path id="Fill_14" class="st4" d="M3.9,89c-0.5,2.7,1.3,5.3,4,5.8c2.7,0.5,5.3-1.3,5.8-4c0.5-2.7-1.3-5.3-4-5.8
			C7,84.5,4.4,86.3,3.9,89"/>
		<path id="Fill_16" class="st4" d="M-22.1,89c-0.5,2.7,1.3,5.3,4,5.8c2.7,0.5,5.3-1.3,5.8-4c0.5-2.7-1.3-5.3-4-5.8
			C-19,84.5-21.6,86.3-22.1,89"/>
		<g id="Group_21" transform="translate(79.107 109.84)">
			<path id="Fill_18" class="st5" d="M-72.3,0.7c-2.1,3.5-5.9,5.7-10,5.6"/>
			<path id="Stroke_20" class="st6" d="M-72.3,0.7c-2.1,3.5-5.9,5.7-10,5.6"/>
		</g>
	</g>
</g>
<g id="Man_Legs_1" transform="translate(53 249)">
	<g id="Group_18" transform="translate(46 181.238)">
		<g id="Shoes" transform="translate(0 343.056)">
			<path id="Shoes-2" class="st4" d="M118.9,116.5L89.4,115l-7,22.5c0,0-54.4-22.3-82.4-13.9l94.3,54.6L118.9,116.5z M450.1,45.4
				L382.6,0l-9.3,28.8l31.8,26.5c-2.3,12-3.8,24.2-4.7,36.4c-0.9,16.1-0.5,32.3,1.2,48.4L450.1,45.4z"/>
		</g>
		<g id="Leg_skin" transform="translate(28.18 343.009)">
			<path id="Skin" class="st1" d="M91.1,116.4L63,108.8l-8.7,28.6l24.1,10.1L91.1,116.4z M393.8,26.7L354.9,0l-1.7,35.6L377,55.3
				L393.8,26.7z"/>
		</g>
		<g id="Pants" transform="translate(27.488 0)">
			<path id="Pants-2" class="st0" d="M233.4,109.1c7.8-25.6,13.3-44.7,15.1-53c8-37,8-54.8,8-56.1H123.9c0.6,9.9-1.1,36.2,2.7,72.6
				l-81.4,363l-8.2-1.4l-7.1,28.2l89,17.8l10.8-29.8l-5.3-0.9c11.9-35.8,37.8-115.2,63-193.7c3.1,5.2,6.4,10.5,9.9,15.7
				c46.9,71.3,93.7,112.6,119.4,132l-3.8,5.4l25.7,16.4l56.6-80.5l-25-17.9l-4.2,6c-30.5-28-91.3-93.9-127.1-199.7
				C236.3,125.4,234.5,117.3,233.4,109.1L233.4,109.1z"/>
		</g>
		<g id="Overlay" transform="translate(166.126 0)">
			<path id="Overlay-2" d="M-9,450.4l-5.3-0.9C11.2,372.7,101.4,95.3,109.9,56.1c8-37,8-54.8,8-56.1H4.2l-97.7,435.6l-8.2-1.4
				l-7.1,28.2l89,17.8L-9,450.4z"/>
		</g>
	</g>
</g>
<g id="Man_Body_5" transform="translate(186 212)">
	<g id="Group_36" transform="translate(17 21.871)">
		<g id="Skin_color" transform="translate(0 19.772)">
			<path id="Mask" class="st1" d="M221.2,280c0,0,0.4,4.3,3,4.8c0.7,0.1,9.4-24.3,9.4-24.3l-0.5,5.5l-1.2,5.6c0,0,0.1,3,2.5,3.6
				c1,0.2,2.8-4.9,4.6-10.8c2.3-7.5,2.9-15.4,1.9-23.2c-1-8.4-0.5-11.2-4.3-21.5c-0.4-1.2-1-2.6-1.7-4.1c2-17.7,7.8-69.4,7.1-85.3
				c-0.9-19.3-21.3-62.1-21.3-62.1l-41.5,23.2l22.8,41.6l1.3,79.6l-2.5,4.7c-1.8,3.4-3.4,6.9-4.6,10.5c-2.3,6.7-1.4,10.8-6.4,21.2
				c-5.7,11.9,4.5,7,8.2,1.8c2.9-4.1,2.5-9.5,6.3-12c1.2,2,4.1,4.8,5.7,22c0.3,3.1-1.1,13.1-1.1,13.1c0,3-0.4,9.2,3,10.2
				c0.8,0.2,1.9-0.7,1.9-0.7s-0.3,3.9,3.2,4.7c0,0,0,0,0.1,0C218.6,288.2,221.2,280,221.2,280z M34.3,147.2
				c20.7-8.5,45.4-78.9,45.4-78.9L39.5,44.3L21.4,92.7l-36.9-40.1c1.3-7.9,2.3-18.3-0.2-22C-20,24.4-41.5,5.2-41.5,5.2l-3.9,32.5
				l-0.7-2.7c0-0.2,0-0.3-0.1-0.5c0,0,0,0,0-0.1l-1.6-6.3c0.7-0.3,0.9-0.8,0.6-1.5c-0.4-0.7-0.9-1.3-1.5-1.7l-5.4-21.7
				c0,0-1.8,0.8-4.4,2c-4.2-0.9-19.4,9.4-19.6,9.6l0,0c-3.1,2,4.3,35,10.2,41.1c4.2,4.4,17.4,8.1,24.7,9.9
				c10.2,20.1,44.3,82.7,71.2,82.7C30.2,148.4,32.3,148,34.3,147.2L34.3,147.2z M104.3,21c24-1.4,34.1-16.3,36.4-20.4
				c-15.2-1.1-16.8-0.9-37.1,1.2C97,2.6,90.4,4,84,6c-1.1,3.9-2.8,15.1,16.9,15.1C101.9,21.1,103.1,21.1,104.3,21z"/>
		</g>
		<g id="T-Shirt" transform="translate(17.258 20.373)">
			<path id="T-Shirt-2" class="st7" d="M163.3,176.5l2.2-81l42.1-31.4c0,0-19.8-39.8-53.8-55.6C144.3,4,134,1.1,123.5,0
				c-0.8-0.1-0.2-0.1-0.3,0.3c-0.1,0.3-0.3,0.6-0.5,0.9c-0.2,0.3-0.2,0.2-1.3,1.8c-1.5,2-3.2,3.8-5,5.5c-2.2,2.1-4.6,4-7.3,5.4
				c-2.5,1.4-5.2,2.6-7.9,3.6c-1.5,0.6-3,1.1-4.6,1.4c-3.9,0.9-7,1.2-13.3,1.6c-0.8,0-5.2-0.3-5.9-0.4c-1.1-0.2-2.1-0.4-3.3-0.8
				c-2.5-0.8-4.7-2.3-6.4-4.3c-0.9-1.1-1.7-4.6-1.4-7.3s1.4-2.6,0.4-2.3C48.4,10.4,31,20.7,20.9,39c-0.8,1.5-1.6,2.9-2.2,4.3l-0.1,0
				L2.1,80.8l23.3,13.6l4.9,82.1L163.3,176.5z"/>
		</g>
		<path id="Stroke_16" class="st8" d="M182.8,115.9l-10.7,7.2l-25.6-29.8"/>
		<path id="Phone" class="st1" d="M-60.7,63.3l1.9,9.1h30.1L-43,0H-73l5.5,28.1l5.9-2.7l1.8-0.5l1.5,0.1l0.6,0.4v1.8l-6.4,9.2
			l4.9,2.1l7.6,4l2.2,1.5l0.8,0.8l0.7,0.6l0.4,0.5l0.3,0.5l0.1,0.6l-0.1,0.3l-0.1,0.2l-0.2,0.2l-2.5,0.9l-5.7-1.5h-5.6l7.5,1.5
			l4.9,2.9l1.7,1.6l0.9,1.2v1.1l-1.7,0.7l-10.4-1.2l3.4,1.9l2.3,1.4l2.1,1.1l1.6,2.1v1l-0.6,0.6l-1.5,0.8h-6.7L-60.7,63.3z"/>
		<path id="Fill_23" class="st9" d="M-28.8,72.4h5L-38,0h-5L-28.8,72.4z"/>
		<path id="Fill_34" class="st9" d="M-48.1,8.4c0.4,2.1,1.6,3.7,2.8,3.4c1.1-0.2,1.7-2.1,1.2-4.2s-1.6-3.7-2.8-3.4
			C-48,4.4-48.6,6.3-48.1,8.4"/>
	</g>
</g>
</svg>
