<svg id="Character_Robot_2" data-name="Character / Robot / 2" xmlns="http://www.w3.org/2000/svg" width="458.055" height="661.561" viewBox="0 0 458.055 661.561">
  <g id="Robot_Legs_2" data-name="Robot / Legs / 2" transform="translate(0 306.236)">
    <g id="Group_20" data-name="Group 20">
      <path id="Fill_1" data-name="Fill 1" d="M420.82,306.606H0c1.944-49.952,32.611-71.294,79.38-72.475,30.872-83.7,98.515,1.694,103.384-64.512C188.485,91.762,190.13,0,190.13,0l39.88.661s3.33,49.127,10.24,149.214c4.9,70.895,54.82,5.146,120.39,48.11,33.1,21.689,31.623,74.157,31.623,74.157s28.557,1.43,28.557,34.464" transform="translate(0 48.719)" fill="#b5b8bc"/>
      <path id="Fill_3" data-name="Fill 3" d="M103.22,40.776H0C4.49,18.624,23.66,2.466,46.24.251A55.24,55.24,0,0,1,67.07,2.226,52.833,52.833,0,0,1,85,11.48a50.168,50.168,0,0,1,18.22,29.3" transform="translate(41.37 314.549)" fill="#d7dadd"/>
      <path id="Fill_5" data-name="Fill 5" d="M55.86,22.948H0A29.284,29.284,0,0,1,19.17,1.362,27.353,27.353,0,0,1,26.31.039a26.955,26.955,0,0,1,4.23.105c12.17,1.237,22.34,10.462,25.32,22.8" transform="translate(318.14 332.377)" fill="#d7dadd"/>
      <path id="Fill_7" data-name="Fill 7" d="M160.018,84.707H.4a74.032,74.032,0,0,1,.53-19.342,75.712,75.712,0,0,1,2.28-9.954c11.04-36.5,48.85-60.4,89.09-54.526a82.35,82.35,0,0,1,26.35,8.506c27.67,14.461,44.74,43.843,41.37,75.316" transform="translate(123.162 270.617)" fill="#d7dadd"/>
      <path id="Fill_9" data-name="Fill 9" d="M31.333,17.383c-1.309,8.25-9.344,13.919-17.946,12.664S-1.128,21.087.181,12.838,9.524-1.081,18.127.174s14.515,8.96,13.206,17.209" transform="translate(125.108 192.793)" fill="#d7dadd"/>
      <path id="Fill_11" data-name="Fill 11" d="M12.931,7.175A6.469,6.469,0,0,1,5.525,12.4,6.277,6.277,0,0,1,.075,5.3,6.469,6.469,0,0,1,7.481.072a6.278,6.278,0,0,1,5.45,7.1" transform="translate(257.902 205.866)" fill="#d7dadd"/>
      <path id="Fill_13" data-name="Fill 13" d="M29.842,16.556c-1.247,7.856-8.9,13.256-17.092,12.061S-1.074,20.083.173,12.227,9.072-1.03,17.265.166,31.089,8.7,29.842,16.556" transform="translate(428.04 300.156)" fill="#d7dadd"/>
      <g id="Legs_color" data-name="Legs color" transform="translate(153.989 0)">
        <path id="Legs" d="M31.18,59.607l-20-40.428H10A9.8,9.8,0,0,1,0,9.589,9.8,9.8,0,0,1,10,0h95.282a9.8,9.8,0,0,1,10,9.589,9.8,9.8,0,0,1-10,9.589H104.1l-20,40.428Z" transform="translate(0 0)" fill="#f6b852"/>
      </g>
      <g id="Overlay" transform="translate(165 19.179)">
        <path id="Fill_16" data-name="Fill 16" d="M72.923,40.428H20L0,0H92.923Z" transform="translate(0 0)" opacity="0.402"/>
      </g>
    </g>
    <g id="Group_20-2" data-name="Group 20" transform="translate(0 0)">
      <path id="Fill_1-2" data-name="Fill 1" d="M420.82,306.606H0c1.944-49.952,32.611-71.294,79.38-72.475,30.872-83.7,98.515,1.694,103.384-64.512C188.485,91.762,190.13,0,190.13,0l39.88.661s3.33,49.127,10.24,149.214c4.9,70.895,54.82,5.146,120.39,48.11,33.1,21.689,31.623,74.157,31.623,74.157s28.557,1.43,28.557,34.464" transform="translate(0 48.719)" fill="#b5b8bc"/>
      <path id="Fill_3-2" data-name="Fill 3" d="M103.22,40.776H0C4.49,18.624,23.66,2.466,46.24.251A55.24,55.24,0,0,1,67.07,2.226,52.833,52.833,0,0,1,85,11.48a50.168,50.168,0,0,1,18.22,29.3" transform="translate(41.37 314.549)" fill="#d7dadd"/>
      <path id="Fill_5-2" data-name="Fill 5" d="M55.86,22.948H0A29.284,29.284,0,0,1,19.17,1.362,27.353,27.353,0,0,1,26.31.039a26.955,26.955,0,0,1,4.23.105c12.17,1.237,22.34,10.462,25.32,22.8" transform="translate(318.14 332.377)" fill="#d7dadd"/>
      <path id="Fill_7-2" data-name="Fill 7" d="M160.018,84.707H.4a74.032,74.032,0,0,1,.53-19.342,75.712,75.712,0,0,1,2.28-9.954c11.04-36.5,48.85-60.4,89.09-54.526a82.35,82.35,0,0,1,26.35,8.506c27.67,14.461,44.74,43.843,41.37,75.316" transform="translate(123.162 270.617)" fill="#d7dadd"/>
      <path id="Fill_9-2" data-name="Fill 9" d="M31.333,17.383c-1.309,8.25-9.344,13.919-17.946,12.664S-1.128,21.087.181,12.838,9.524-1.081,18.127.174s14.515,8.96,13.206,17.209" transform="translate(125.108 192.793)" fill="#d7dadd"/>
      <path id="Fill_11-2" data-name="Fill 11" d="M12.931,7.175A6.469,6.469,0,0,1,5.525,12.4,6.277,6.277,0,0,1,.075,5.3,6.469,6.469,0,0,1,7.481.072a6.278,6.278,0,0,1,5.45,7.1" transform="translate(257.902 205.866)" fill="#d7dadd"/>
      <path id="Fill_13-2" data-name="Fill 13" d="M29.842,16.556c-1.247,7.856-8.9,13.256-17.092,12.061S-1.074,20.083.173,12.227,9.072-1.03,17.265.166,31.089,8.7,29.842,16.556" transform="translate(428.04 300.156)" fill="#d7dadd"/>
      <g id="Legs_color-2" data-name="Legs color" transform="translate(153.989 0)">
        <path id="Legs-2" data-name="Legs" d="M31.18,59.607l-20-40.428H10A9.8,9.8,0,0,1,0,9.589,9.8,9.8,0,0,1,10,0h95.282a9.8,9.8,0,0,1,10,9.589,9.8,9.8,0,0,1-10,9.589H104.1l-20,40.428Z" transform="translate(0 0)" fill="#f6b852"/>
      </g>
      <g id="Overlay-2" data-name="Overlay" transform="translate(165 19.179)">
        <path id="Fill_16-2" data-name="Fill 16" d="M72.923,40.428H20L0,0H92.923Z" transform="translate(0 0)" opacity="0.402"/>
      </g>
    </g>
  </g>
  <g id="Robot_Body_1" data-name="Robot / Body / 1" transform="translate(10 172)">
    <g id="Group_34" data-name="Group 34" transform="translate(77 3)">
      <g id="Body_color" data-name="Body color">
        <path id="Body" d="M40.668,257.852a27.817,27.817,0,0,1,14.614,21.056,28.358,28.358,0,0,1,.214,3.029,4.681,4.681,0,0,1-8.406,2.928c-3.155-4.1-7.334-6.468-11.7-6.081-8.385.743-14.3,11.348-13.2,23.692,0,.026,0,.052.007.078a4.691,4.691,0,0,1-6.729,4.7,27.759,27.759,0,0,1,.592-50.053V62.055a27.8,27.8,0,0,1,2.349-50.1A21.877,21.877,0,0,1,37.845,0H210.7a21.848,21.848,0,0,1,18.39,10.118A27.791,27.791,0,0,1,245.7,62.489V259.405a27.759,27.759,0,0,1-2.382,49.137,4.691,4.691,0,0,1-6.607-4.868c0-.027.005-.053.009-.078,1.409-12.312-4.228-23.066-12.591-24.023-4.359-.5-8.6,1.761-11.857,5.779a4.681,4.681,0,0,1-8.328-3.141,28.45,28.45,0,0,1,.291-3.023,27.857,27.857,0,0,1,16.85-21.455v-181A21.624,21.624,0,0,1,210.7,79.385H40.668V257.852Z" transform="translate(0 0)" fill="#f6b852"/>
      </g>
      <path id="Shape" d="M78.381,39.448H12a12.035,12.035,0,0,1-12-12V12A12.035,12.035,0,0,1,12,0H78.381a12.035,12.035,0,0,1,12,12V27.448a12.035,12.035,0,0,1-12,12ZM60.806,6.04A13.685,13.685,0,1,0,74.49,19.723,13.7,13.7,0,0,0,60.806,6.04Zm-37.555,0A13.685,13.685,0,1,0,36.934,19.723,13.7,13.7,0,0,0,23.251,6.04Z" transform="translate(115.134 18.538)" fill="#19141e"/>
      <g id="Overlay-3" data-name="Overlay" transform="translate(16.053 0)">
        <path id="Shape-2" data-name="Shape" d="M229.65,257.319H205.035V76.8a68.943,68.943,0,0,0,5.872-5.969c.84-1.05,1.6-2.064,2.273-2.958.527-.7.98-1.3,1.329-1.734A5.983,5.983,0,0,0,215,65.37l.017-.033c.024-.047.029-.058.069-.058l.037,0c.83.065,1.431.089,2.218.089h.007c-.764,0-1.538-.032-2.3-.1a21.588,21.588,0,0,0,1.412-7.7V21.814a21.672,21.672,0,0,0-3.424-11.7A27.791,27.791,0,0,1,229.465,62.58l.185-.085ZM223.389,64.7h0a29.934,29.934,0,0,1-5.8.669,27.646,27.646,0,0,0,5.8-.669h0l.014,0,.04-.008c.3-.064.66-.152,1.056-.262h0c.641-.172,1.294-.372,1.94-.6-.72.239-1.373.439-1.94.6h0c-.367.1-.74.19-1.11.273Zm3.987-1.212-.176.068c-.252.1-.508.189-.761.276l.165-.055C226.814,63.705,227.074,63.608,227.376,63.487Zm2.088-.907c-.843.384-1.546.689-2.088.907C228.075,63.216,228.778,62.912,229.464,62.58ZM24.615,257.319H0V62.066c.137.071.292.152.5.26l0-.007a27.6,27.6,0,0,0,5.963,2.228c.194.044.394.085.611.125l.559.107c.634.122,1.353.261,2.139.374A27.788,27.788,0,1,0,13.145,9.78a27.608,27.608,0,0,0-10.8,2.176,22.027,22.027,0,0,1,7.906-8.633A21.676,21.676,0,0,1,21.793,0H49.163a21.542,21.542,0,0,1,8.47,1.721A22.026,22.026,0,0,1,69.255,13.344a21.543,21.543,0,0,1,1.721,8.47V57.572a21.541,21.541,0,0,1-1.721,8.47A22.027,22.027,0,0,1,57.633,77.664a21.542,21.542,0,0,1-8.47,1.721H24.615Z" transform="translate(0)" opacity="0.401"/>
      </g>
      <path id="Shape-3" data-name="Shape" transform="translate(16.052 87.627)" fill="none" stroke="#19141e" stroke-miterlimit="10" stroke-width="5"/>
      <path id="Fill_13-3" data-name="Fill 13" d="M0,55.168H34.77V0H0Z" transform="translate(106 76)" fill="#19141e"/>
    </g>
  </g>
  <g id="Robot_Head_1" data-name="Robot / Head / 1" transform="translate(123)">
    <g id="Group_23" data-name="Group 23" transform="translate(44 27)">
      <path id="Fill_1-3" data-name="Fill 1" d="M9.654,19.308H23A9.654,9.654,0,0,0,23,0H9.654a9.654,9.654,0,0,0,0,19.308" transform="translate(88.205 76)" fill="#19141e"/>
      <path id="Stroke_4" data-name="Stroke 4" d="M12.763,7.554C14.779,2.1,22.424-1.122,29.839.361s11.793,7.107,9.777,12.563L29.449,40.446c-2.015,5.456-2.693,7.019-11.843,7.019H4.485c-4.78,0-6.247-3.089-1.888-12.388Z" transform="translate(32.894 106)" fill="#19141e"/>
      <g id="Face_color" data-name="Face color" transform="translate(15)">
        <path id="Face" d="M41.615,139.538A41.738,41.738,0,0,1,0,97.923V75.461A41.738,41.738,0,0,1,41.615,33.845h4A41.738,41.738,0,0,1,87.231,75.461V97.923a41.738,41.738,0,0,1-41.616,41.615ZM67.846,10.384A10.385,10.385,0,1,1,78.231,20.769,10.385,10.385,0,0,1,67.846,10.384Z" transform="translate(0.479 0.001)" fill="#f6b852"/>
      </g>
      <path id="Path" d="M17.828,3.947C11.02,9.876,7.144,16.432,5.975,25.362a3,3,0,1,1-5.949-.779C1.372,14.3,5.785,6.681,13.231,0A10.426,10.426,0,0,0,17.828,3.947Z" transform="translate(71.709 15.95)" fill="#19141e"/>
      <path id="Fill_12" data-name="Fill 12" d="M10.823,4.505A5.453,5.453,0,1,1,4.505.084a5.452,5.452,0,0,1,6.318,4.421" transform="translate(61.895 73.875)" fill="#19141e"/>
      <path id="Fill_14" data-name="Fill 14" d="M10.823,4.505A5.453,5.453,0,1,1,4.505.084a5.453,5.453,0,0,1,6.318,4.421" transform="translate(90.205 73.992)" fill="#19141e"/>
      <g id="Overlay-4" data-name="Overlay" transform="translate(78.069 72.492)">
        <path id="Fill_16-3" data-name="Fill 16" d="M1.051,0l13.76,21.834L0,22.192Z" transform="translate(0)" opacity="0.404"/>
      </g>
      <path id="Fill_18" data-name="Fill 18" d="M9.654,19.308H22.607V0H9.654a9.654,9.654,0,0,0,0,19.308" transform="translate(0 73.934)" fill="#19141e"/>
      <path id="Stroke_21" data-name="Stroke 21" d="M13.342,6.554C6.79,7.664.665,3.922,0,0" transform="translate(62.979 98.317)" fill="none" stroke="#19141e" stroke-miterlimit="10" stroke-width="4"/>
    </g>
  </g>
</svg>
